<svg version="1.2" xmlns="http://www.w3.org/2000/svg" viewBox="0 0 512 512" width="512" height="512">
	<title>medium_logo_icon_189223-svg</title>
	<style>
		.s0 { fill: #000000 } 
		.s1 { fill: #ffffff } 
	</style>
	<path id="Layer" class="s0" d="m4.8 70.3c0-37.5 30.4-68 68-68h368.9c37.5 0 68 30.5 68 68v368.9c0 37.6-30.5 68-68 68h-368.9c-37.6 0-68-30.4-68-68z"/>
	<path id="Layer" class="s1" d="m185.6 349.6c-52.5 0-94.9-42.4-94.9-94.8 0-52.5 42.4-94.9 94.9-94.9 52.4 0 94.8 42.4 94.8 94.9 0 52.4-42.4 94.8-94.8 94.8z"/>
	<path id="Layer" class="s1" d="m334.4 342.4c-23.8 0-43-39.4-43-88.2 0-48.7 19.2-88.2 43-88.2 23.7 0 42.9 39.5 42.9 88.2 0 48.8-19.2 88.2-42.9 88.2z"/>
	<path id="Layer" class="s1" d="m406.9 334c-9.3 0-16.8-35.7-16.8-79.8 0-44 7.5-79.7 16.8-79.7 9.3 0 16.8 35.7 16.8 79.7 0 44.1-7.5 79.8-16.8 79.8z"/>
</svg>